PathFileType	4	(X/Y/Z)	 s10c0201.trc
DataRate	CameraRate	NumFrames	NumMarkers	Units	OrigDataRate	OrigDataStartFrame	OrigNumFrames
200	200	4	50	mm	200	751	2000
Frame#	Time	racr			lacr			c7			jug			rlel			rdr			llel			ldr			s2			lic			ric			lasi			rasi			rpsi			lpsi			rgt			lgt			rth1			rth2			rth3			rth4			rlfc			rmfc			rsh1			rsh2			rsh3			rsh4			rlmal			rmmal			rcal			rtoe			rmt5			lth1			lth2			lth4			lth3			llfc			lmfc			llmal			lmmal			lcal			lmt5			lsh1			lsh2			lsh3			lsh4			ltoe			SBIKE			LBIKE			RBIKE			
		X1	Y1	Z1	X2	Y2	Z2	X3	Y3	Z3	X4	Y4	Z4	X5	Y5	Z5	X6	Y6	Z6	X7	Y7	Z7	X8	Y8	Z8	X9	Y9	Z9	X10	Y10	Z10	X11	Y11	Z11	X12	Y12	Z12	X13	Y13	Z13	X14	Y14	Z14	X15	Y15	Z15	X16	Y16	Z16	X17	Y17	Z17	X18	Y18	Z18	X19	Y19	Z19	X20	Y20	Z20	X21	Y21	Z21	X22	Y22	Z22	X23	Y23	Z23	X24	Y24	Z24	X25	Y25	Z25	X26	Y26	Z26	X27	Y27	Z27	X28	Y28	Z28	X29	Y29	Z29	X30	Y30	Z30	X31	Y31	Z31	X32	Y32	Z32	X33	Y33	Z33	X34	Y34	Z34	X35	Y35	Z35	X36	Y36	Z36	X37	Y37	Z37	X38	Y38	Z38	X39	Y39	Z39	X40	Y40	Z40	X41	Y41	Z41	X42	Y42	Z42	X43	Y43	Z43	X44	Y44	Z44	X45	Y45	Z45	X46	Y46	Z46	X47	Y47	Z47	X48	Y48	Z48	X49	Y49	Z49	X50	Y50	Z50	
751	3.7550	496.807280	1204.834871	-72.281102	517.097828	1190.086407	-368.109742	468.330630	1257.285829	-225.129935	437.327681	1107.887664	-217.621599	417.620310	989.247818	65.040410	603.131841	913.039658	3.322631	449.368734	969.629309	-527.449036	620.866057	912.153827	-406.265023	-79.898176	1116.305042	-224.613274	88.842057	1108.287628	-374.175077	102.744128	1106.558034	-73.306518	98.299802	1015.282398	-342.654356	85.683795	1030.903076	-88.290230	-30.509231	1171.236851	-165.305643	-24.211777	1174.163611	-278.020762	-22.704972	1025.238882	-29.492535	-10.446588	986.020586	-411.194462	77.290694	918.594848	-8.318675	160.415105	887.041247	-21.321388	212.929767	819.916575	-24.176506	178.813556	916.990777	-33.666023	293.577101	746.640298	-41.876040	278.144466	733.735300	-160.656470	191.386153	689.145976	-16.681862	138.253812	619.681746	-33.455361	59.109745	586.039397	-40.512134	159.251777	599.167132	-58.610289	-27.443734	519.750919	-60.754335	8.074012	519.414846	-137.279775	-79.429188	530.724958	-111.252657	106.250631	372.645053	-94.453006	21.157669	401.666385	-39.481839	74.123058	880.347108	-416.183936	147.633590	839.079026	-394.699353	170.635088	865.418394	-383.376602	191.112978	763.280291	-380.737083	268.434401	685.512283	-350.978629	248.567391	674.683273	-238.527882	203.626023	311.582027	-371.074687	214.334104	314.882949	-287.795530	152.105494	270.918869	-332.685684	330.761055	240.669255	-385.500994	226.558516	568.496400	-392.323086	246.419742	484.639456	-378.484138	221.297893	399.289645	-379.979011	272.376391	486.445514	-350.865128	406.183183	279.796027	-324.959882	-204.622440	834.027799	-224.771088	-78.300615	81.269786	-423.288495	-102.695406	80.503085	-24.401372	
752	3.7600	494.814479	1207.889358	-69.406007	518.293947	1191.223615	-366.362543	467.909542	1259.092668	-223.633428	437.649976	1110.048368	-215.400071	417.092041	989.684708	64.453849	603.328338	913.194631	3.486157	450.567775	971.396527	-526.995922	621.387593	912.259872	-405.994031	-79.880293	1115.576954	-225.830629	89.384099	1106.623536	-374.993381	102.223247	1107.922697	-73.931403	98.685805	1013.836798	-343.063645	85.477117	1031.442872	-89.439540	-30.676180	1170.858862	-167.332897	-24.522928	1173.167562	-279.534222	-22.220730	1026.214404	-30.002968	-10.529806	984.211403	-411.579552	79.149762	920.935982	-8.501105	162.617074	890.548758	-21.606217	216.455501	824.373847	-23.778987	180.668344	920.934237	-33.975746	298.078126	752.245908	-41.563074	282.921928	738.636480	-160.447660	196.098351	694.625886	-16.225798	142.616703	625.289630	-33.089402	63.226783	592.140761	-39.958862	163.449744	604.889854	-58.481260	-23.596975	526.307936	-60.351872	11.892773	526.130195	-137.040592	-75.573506	537.065929	-111.305344	109.977438	379.101251	-94.360238	24.673924	408.242749	-39.302862	72.725348	877.458896	-417.189336	146.240479	835.435083	-396.462930	168.978823	860.966798	-384.333243	187.558746	758.497879	-381.260848	263.963339	680.506236	-351.558131	241.963472	671.085126	-240.158588	200.887429	306.105282	-371.325396	211.677777	309.285118	-288.252615	149.337116	266.035935	-332.892289	327.767053	234.013356	-385.576344	222.507607	563.359465	-392.965404	242.669772	479.529808	-379.066769	217.959672	394.158323	-380.647710	268.489890	481.509774	-351.362185	403.510499	272.419528	-324.863414	-204.606400	834.045851	-224.675579	-78.241330	81.516428	-423.514546	-102.672258	80.477128	-24.415463	
753	3.7650	492.823424	1210.713113	-66.541076	519.353362	1192.498729	-364.506646	467.404307	1261.067571	-222.031261	437.842809	1112.193141	-213.138543	416.461554	990.289801	64.280462	603.554531	913.423866	3.646863	451.748683	973.250345	-526.463153	622.097421	912.373920	-405.819161	-79.996404	1114.916899	-226.932748	89.886000	1105.006860	-375.804666	101.666907	1109.308541	-74.317302	99.147290	1012.535264	-343.486941	86.347383	1032.916095	-89.155027	-30.854038	1170.320223	-169.540738	-24.674697	1172.544734	-281.303683	-21.647068	1027.095036	-30.457839	-10.695255	982.498365	-412.063280	80.920648	923.635832	-7.835600	165.016277	894.205995	-21.635006	219.926016	828.912084	-23.386251	182.607685	924.733689	-34.149766	302.624806	757.845701	-41.215801	288.342026	744.061449	-160.417694	200.847219	700.067031	-15.672297	147.066270	630.975369	-32.740632	67.579944	598.020130	-39.623593	167.798693	610.580189	-58.287477	-19.619686	532.904321	-60.044452	15.870914	532.546926	-136.680480	-71.487170	544.461946	-109.906054	113.815662	385.421746	-94.170458	28.578417	414.717873	-39.105652	71.213645	874.848442	-418.278342	143.852536	831.518915	-397.422741	167.191036	856.625108	-385.345430	183.883686	753.725559	-381.996237	259.122491	675.670283	-352.319520	236.584565	667.230352	-241.236030	197.893507	300.930870	-371.517133	208.811708	303.807518	-288.649784	146.436968	261.374528	-333.049427	324.450427	227.546192	-385.639939	218.361504	558.200105	-393.593492	238.788009	474.569294	-379.680593	215.036440	389.373376	-382.068415	264.718141	476.599644	-351.638574	400.661050	265.074600	-324.866851	-204.615990	834.084896	-224.687170	-78.207184	81.621422	-423.699981	-102.665236	80.469769	-24.399552	
754	3.7700	490.743594	1213.735329	-63.853858	520.404389	1193.947261	-362.644194	466.762976	1263.145588	-220.413133	437.965672	1114.402176	-210.948785	416.061821	990.375985	63.420925	603.630872	913.902333	3.913769	452.917883	975.313992	-525.899810	622.767054	912.399318	-405.875777	-80.097159	1114.236680	-227.914928	90.319165	1103.498938	-376.600973	101.086094	1110.677888	-74.641972	99.514900	1011.249704	-343.692095	86.864088	1033.693559	-89.488309	-31.313448	1169.970644	-171.385922	-25.290109	1171.327164	-282.449893	-20.955387	1027.797957	-30.951635	-10.905598	980.982449	-412.612881	83.074844	925.542095	-8.669154	167.501009	897.726338	-21.578361	223.275392	833.481122	-23.069894	184.569137	928.602196	-34.170243	307.198276	763.540457	-40.823794	292.384955	748.570653	-159.925976	205.577041	705.464961	-15.212662	151.635662	636.655465	-32.344555	72.041460	603.787706	-39.319112	172.261868	616.268423	-58.023959	-15.180306	539.201393	-59.501464	20.063731	538.978283	-136.438307	-67.309954	550.704160	-109.887980	117.875682	391.576552	-94.010762	32.889485	421.109519	-38.629612	69.543234	872.423410	-419.412126	141.418381	827.794475	-398.531504	165.201048	852.409884	-386.498275	179.891872	749.171472	-382.967420	253.927341	670.810488	-353.249373	231.290088	663.110629	-242.456892	194.731822	295.584125	-371.537397	205.872770	298.219030	-288.890783	143.093227	257.226648	-333.746265	320.910194	221.245657	-385.788648	214.124677	553.122964	-394.066150	234.685979	469.756686	-380.327368	210.716797	384.057042	-381.988774	260.463915	471.782102	-352.088565	397.428014	257.971449	-325.005628	-204.595146	834.108590	-224.713752	-78.182251	81.669195	-423.702112	-102.679929	80.507762	-24.396868	
